<svg xmlns="http://www.w3.org/2000/svg" viewBox="0 0 64 64" width="64" height="64" aria-label="Motiva Hub">
  <defs>
    <linearGradient id="goldFace" x1="0" y1="0" x2="0" y2="1">
      <stop offset="0%" stop-color="#f5d896"/>
      <stop offset="35%" stop-color="#e0bc6c"/>
      <stop offset="65%" stop-color="#c79a45"/>
      <stop offset="100%" stop-color="#8a6420"/>
    </linearGradient>
    <linearGradient id="darkFace" x1="0" y1="0" x2="0" y2="1">
      <stop offset="0%" stop-color="#3a3a3a"/>
      <stop offset="50%" stop-color="#1a1a1a"/>
      <stop offset="100%" stop-color="#0a0a0a"/>
    </linearGradient>
  </defs>

  <g transform="translate(8, 4)">
    <path d="M 0 32 L 0 0 L 5 0 L 14 18 L 23 0 L 28 0 L 28 32 L 24 32 L 24 9 L 16 23 L 12 23 L 4 9 L 4 32 Z" fill="url(#goldFace)" stroke="#5a3e10" stroke-width="0.15"/>
  </g>

  <g transform="translate(38, 4)">
    <path d="M 0 32 L 0 0 L 5 0 L 5 27 L 16 27 L 16 32 L 0 32 Z" fill="url(#darkFace)" stroke="#000" stroke-width="0.15"/>
  </g>

  <g transform="translate(0, 30)">
    <path d="M 18 0 L 32 -10 L 38 -10 L 50 0 L 46 0 L 32 -7 L 22 0 Z" fill="url(#goldFace)" stroke="#5a3e10" stroke-width="0.1"/>
  </g>

  <g transform="translate(0, 44)">
    <path d="M 0 6 L 6 0 L 12 6 L 9 6 L 6 3 L 3 6 Z" fill="url(#goldFace)" stroke="#5a3e10" stroke-width="0.1"/>
    <path d="M 6 3 L 6 9" stroke="#c79a45" stroke-width="0.2"/>
    <path d="M 14 5 L 19 0 L 24 5 L 21 5 L 19 3 L 17 5 Z" fill="url(#goldFace)" stroke="#5a3e10" stroke-width="0.1"/>
    <path d="M 22 4 L 26 0 L 30 4 L 27 4 L 26 2 L 25 4 Z" fill="url(#goldFace)" stroke="#5a3e10" stroke-width="0.1"/>
  </g>

  <line x1="6" y1="58" x2="58" y2="58" stroke="url(#goldFace)" stroke-width="0.4" opacity="0.7"/>
</svg>
